<?xml version="1.0" standalone="no"?>
<!DOCTYPE svg PUBLIC "-//W3C//DTD SVG 20010904//EN"
 "http://www.w3.org/TR/2001/REC-SVG-20010904/DTD/svg10.dtd">
<svg version="1.0" xmlns="http://www.w3.org/2000/svg"
 width="225.000000pt" height="225.000000pt" viewBox="0 0 225.000000 225.000000"
 preserveAspectRatio="xMidYMid meet">

<g transform="translate(0.000000,225.000000) scale(0.100000,-0.100000)"
fill="#000000" stroke="none">
<path d="M930 1601 l-145 -59 -3 -301 -2 -301 180 0 180 0 165 66 165 66 0 82
0 83 -77 35 c-73 33 -77 36 -53 45 14 6 42 18 63 26 l37 16 0 78 0 79 -169 72
c-93 40 -175 72 -183 72 -7 -1 -78 -27 -158 -59z m338 -93 l-3 -73 -153 -62
c-113 -46 -154 -59 -158 -49 -3 7 -4 42 -2 76 l3 64 140 57 c77 32 148 58 158
58 16 1 18 -7 15 -71z m32 -275 c0 -38 -4 -73 -8 -80 -7 -12 -308 -133 -330
-133 -10 0 -12 18 -10 72 l3 72 165 67 c91 37 168 68 173 68 4 1 7 -29 7 -66z"/>
<path d="M1670 710 l0 -120 25 0 c18 0 25 5 25 19 0 10 7 25 16 32 14 11 20 9
43 -18 25 -31 28 -31 115 -32 70 -1 94 3 108 16 39 35 14 76 -52 87 -56 9 -48
31 11 31 32 0 45 4 47 16 2 12 -7 18 -30 22 -50 8 -87 -3 -104 -29 -20 -29 -4
-61 34 -70 55 -12 63 -16 59 -27 -4 -13 -40 -15 -73 -4 -16 6 -23 2 -30 -14
-9 -19 -12 -17 -43 26 l-33 47 33 34 33 34 -30 0 c-21 0 -40 -10 -59 -30 -16
-16 -32 -30 -37 -30 -4 0 -8 29 -8 65 0 63 -1 65 -25 65 l-25 0 0 -120z"/>
<path d="M230 706 l0 -116 83 0 c59 0 89 5 105 16 29 20 30 68 2 87 -18 13
-19 16 -5 27 21 18 19 54 -6 76 -16 14 -40 20 -100 23 l-79 3 0 -116z m140 59
c19 -23 -5 -45 -51 -45 -37 0 -39 2 -39 30 0 28 2 30 39 30 22 0 44 -6 51 -15z
m5 -89 c33 -24 12 -46 -45 -46 -46 0 -50 2 -50 23 0 13 3 27 7 30 11 12 68 8
88 -7z"/>
<path d="M502 759 c-24 -7 -32 -14 -28 -25 3 -9 6 -17 6 -19 0 -2 13 1 29 6
21 7 36 7 50 -1 32 -17 25 -30 -17 -30 -67 0 -104 -47 -67 -84 11 -11 35 -15
85 -14 l70 0 0 60 c0 72 -10 93 -51 107 -36 12 -33 12 -77 0z m78 -107 c0 -14
-23 -32 -41 -32 -21 0 -33 16 -24 30 7 12 65 14 65 2z"/>
<path d="M693 755 c-57 -25 -39 -95 24 -95 31 0 50 -17 36 -31 -10 -10 -21
-10 -48 -2 -31 10 -37 9 -45 -7 -12 -23 4 -30 69 -30 35 0 53 5 66 20 25 27
13 68 -23 76 -78 16 -96 51 -20 41 29 -4 41 -1 45 9 7 19 5 20 -37 27 -21 4
-48 1 -67 -8z"/>
<path d="M875 756 c-31 -13 -55 -51 -55 -87 0 -11 13 -34 29 -50 23 -22 39
-29 69 -29 50 0 72 8 72 25 0 20 -15 26 -42 16 -25 -9 -68 2 -68 19 0 6 27 10
65 10 70 0 74 4 55 55 -6 15 -24 32 -45 40 -41 18 -42 18 -80 1z m75 -41 c18
-22 9 -27 -41 -23 -41 3 -42 4 -25 21 22 21 49 22 66 2z"/>
<path d="M1373 755 c-58 -25 -72 -97 -28 -140 34 -35 106 -35 140 0 45 44 29
116 -30 141 -41 17 -42 17 -82 -1z m85 -74 c4 -28 -14 -51 -42 -51 -47 0 -63
57 -24 84 19 13 25 14 43 2 11 -7 21 -23 23 -35z"/>
<path d="M1040 679 c17 -44 30 -83 30 -85 0 -3 12 -4 27 -2 22 2 31 11 43 45
8 23 18 44 21 48 4 3 15 -17 25 -45 15 -42 22 -50 43 -50 23 0 29 9 57 85 l32
85 -23 0 c-19 0 -26 -9 -40 -50 -9 -27 -20 -50 -25 -50 -5 0 -16 23 -25 50
-14 41 -21 50 -40 50 -19 0 -26 -9 -40 -50 -9 -27 -20 -50 -25 -50 -5 0 -16
23 -25 50 -14 41 -21 50 -41 50 l-23 0 29 -81z"/>
<path d="M1540 674 c0 -83 0 -84 25 -84 24 0 25 3 25 53 0 55 12 77 42 77 11
0 18 7 18 19 0 16 -8 18 -55 19 l-55 0 0 -84z"/>
</g>
</svg>
